<svg xmlns="http://www.w3.org/2000/svg" width="25" height="24" viewBox="0 0 25 24" fill="none">
  <path d="M12.5 11.6923C11.5375 11.6923 10.7136 11.3496 10.0283 10.6643C9.34275 9.97876 9 9.15476 9 8.19226C9 7.22976 9.34275 6.40584 10.0283 5.72051C10.7136 5.03501 11.5375 4.69226 12.5 4.69226C13.4625 4.69226 14.2864 5.03501 14.9718 5.72051C15.6573 6.40584 16 7.22976 16 8.19226C16 9.15476 15.6573 9.97876 14.9718 10.6643C14.2864 11.3496 13.4625 11.6923 12.5 11.6923ZM5 19.3078V17.0845C5 16.5948 5.133 16.1413 5.399 15.724C5.665 15.3067 6.0205 14.9858 6.4655 14.7615C7.45383 14.277 8.45092 13.9136 9.45675 13.6713C10.4626 13.4289 11.477 13.3078 12.5 13.3078C13.523 13.3078 14.5374 13.4289 15.5433 13.6713C16.5491 13.9136 17.5462 14.277 18.5345 14.7615C18.9795 14.9858 19.335 15.3067 19.601 15.724C19.867 16.1413 20 16.5948 20 17.0845V19.3078H5ZM6.5 17.8078H18.5V17.0845C18.5 16.882 18.4413 16.6945 18.324 16.522C18.2067 16.3497 18.0474 16.209 17.8462 16.1C16.9846 15.6757 16.1061 15.3542 15.2107 15.1355C14.3153 14.917 13.4117 14.8078 12.5 14.8078C11.5883 14.8078 10.6848 14.917 9.78925 15.1355C8.89392 15.3542 8.01542 15.6757 7.15375 16.1C6.95258 16.209 6.79333 16.3497 6.676 16.522C6.55867 16.6945 6.5 16.882 6.5 17.0845V17.8078ZM12.5 10.1923C13.05 10.1923 13.5208 9.99643 13.9125 9.60476C14.3042 9.21309 14.5 8.74226 14.5 8.19226C14.5 7.64226 14.3042 7.17143 13.9125 6.77976C13.5208 6.38809 13.05 6.19226 12.5 6.19226C11.95 6.19226 11.4792 6.38809 11.0875 6.77976C10.6958 7.17143 10.5 7.64226 10.5 8.19226C10.5 8.74226 10.6958 9.21309 11.0875 9.60476C11.4792 9.99643 11.95 10.1923 12.5 10.1923Z" fill="#121212"/>
</svg>