<svg xmlns="http://www.w3.org/2000/svg" width="20" height="21" viewBox="0 0 20 21" fill="none">
  <path d="M10.0004 16.8224C9.65662 16.8224 9.36238 16.7 9.11766 16.4552C8.8728 16.2104 8.75037 15.9162 8.75037 15.5724C8.75037 15.2287 8.8728 14.9344 9.11766 14.6895C9.36238 14.4448 9.65662 14.3224 10.0004 14.3224C10.3441 14.3224 10.6384 14.4448 10.8831 14.6895C11.1279 14.9344 11.2504 15.2287 11.2504 15.5724C11.2504 15.9162 11.1279 16.2104 10.8831 16.4552C10.6384 16.7 10.3441 16.8224 10.0004 16.8224ZM10.0004 12.0147C9.65662 12.0147 9.36238 11.8923 9.11766 11.6474C8.8728 11.4027 8.75037 11.1085 8.75037 10.7647C8.75037 10.421 8.8728 10.1268 9.11766 9.88203C9.36238 9.63717 9.65662 9.51474 10.0004 9.51474C10.3441 9.51474 10.6384 9.63717 10.8831 9.88203C11.1279 10.1268 11.2504 10.421 11.2504 10.7647C11.2504 11.1085 11.1279 11.4027 10.8831 11.6474C10.6384 11.8923 10.3441 12.0147 10.0004 12.0147ZM10.0004 7.20703C9.65662 7.20703 9.36238 7.08467 9.11766 6.83995C8.8728 6.59509 8.75037 6.30078 8.75037 5.95703C8.75037 5.61328 8.8728 5.31905 9.11766 5.07432C9.36238 4.82946 9.65662 4.70703 10.0004 4.70703C10.3441 4.70703 10.6384 4.82946 10.8831 5.07432C11.1279 5.31905 11.2504 5.61328 11.2504 5.95703C11.2504 6.30078 11.1279 6.59509 10.8831 6.83995C10.6384 7.08467 10.3441 7.20703 10.0004 7.20703Z" fill="#5F6368"/>
</svg>