<svg xmlns="http://www.w3.org/2000/svg" width="22" height="22" viewBox="0 0 22 22" fill="none">
  <path d="M10.5816 21.3418C9.13863 21.3418 7.78235 21.068 6.51274 20.5204C5.24312 19.9728 4.13878 19.2296 3.1997 18.2909C2.26062 17.3522 1.5171 16.2483 0.969132 14.9792C0.421351 13.7102 0.147461 12.3543 0.147461 10.9115C0.147461 9.46859 0.42126 8.11231 0.968858 6.8427C1.51646 5.57308 2.25961 4.46873 3.19833 3.52965C4.13704 2.59057 5.24093 1.84705 6.50999 1.29909C7.77906 0.751307 9.13497 0.477417 10.5777 0.477417C12.0207 0.477417 13.3769 0.751216 14.6465 1.29881C15.9162 1.84641 17.0205 2.58957 17.9596 3.52828C18.8987 4.46699 19.6422 5.57088 20.1902 6.83995C20.7379 8.10902 21.0118 9.46492 21.0118 10.9077C21.0118 12.3506 20.738 13.7069 20.1904 14.9765C19.6428 16.2461 18.8997 17.3505 17.961 18.2895C17.0222 19.2286 15.9184 19.9721 14.6493 20.5201C13.3802 21.0679 12.0243 21.3418 10.5816 21.3418ZM10.5796 19.6946C13.0321 19.6946 15.1094 18.8435 16.8115 17.1415C18.5136 15.4394 19.3646 13.3621 19.3646 10.9096C19.3646 8.45712 18.5136 6.37984 16.8115 4.67774C15.1094 2.97565 13.0321 2.1246 10.5796 2.1246C8.12717 2.1246 6.04988 2.97565 4.34779 4.67774C2.64569 6.37984 1.79465 8.45712 1.79465 10.9096C1.79465 13.3621 2.64569 15.4394 4.34779 17.1415C6.04988 18.8435 8.12717 19.6946 10.5796 19.6946Z" fill="#0056F6"/>
</svg>