<svg xmlns="http://www.w3.org/2000/svg" width="22" height="22" viewBox="0 0 22 22" fill="none">
  <path d="M10.5821 21.3419C9.13912 21.3419 7.78284 21.0681 6.51323 20.5205C5.24361 19.9729 4.13927 19.2298 3.20019 18.291C2.26111 17.3523 1.51758 16.2484 0.969621 14.9794C0.42184 13.7103 0.147949 12.3544 0.147949 10.9116C0.147949 9.46871 0.421748 8.11243 0.969346 6.84282C1.51694 5.5732 2.2601 4.46886 3.19881 3.52978C4.13753 2.5907 5.24142 1.84717 6.51048 1.29921C7.77955 0.751429 9.13546 0.477539 10.5782 0.477539C12.0211 0.477539 13.3774 0.751338 14.647 1.29894C15.9167 1.84653 17.021 2.58969 17.9601 3.5284C18.8992 4.46712 19.6427 5.57101 20.1906 6.84007C20.7384 8.10914 21.0123 9.46505 21.0123 10.9078C21.0123 12.3507 20.7385 13.707 20.1909 14.9766C19.6433 16.2462 18.9002 17.3506 17.9614 18.2897C17.0227 19.2287 15.9188 19.9723 14.6498 20.5202C13.3807 21.068 12.0248 21.3419 10.5821 21.3419ZM10.5801 19.6947C13.0326 19.6947 15.1099 18.8437 16.812 17.1416C18.5141 15.4395 19.3651 13.3622 19.3651 10.9097C19.3651 8.45724 18.5141 6.37996 16.812 4.67787C15.1099 2.97577 13.0326 2.12473 10.5801 2.12473C8.12765 2.12473 6.05037 2.97577 4.34828 4.67787C2.64618 6.37996 1.79514 8.45724 1.79514 10.9097C1.79514 13.3622 2.64618 15.4395 4.34828 17.1416C6.05037 18.8437 8.12765 19.6947 10.5801 19.6947Z" fill="black"/>
</svg>