<svg xmlns="http://www.w3.org/2000/svg" width="193" height="227" viewBox="0 0 193 227" fill="none">
  <path d="M94.2943 88.8063C95.6951 88.1133 97.3394 88.1151 98.7387 88.8112L184.006 131.232C187.607 133.024 187.727 138.118 184.213 140.076L98.9452 187.603C97.4356 188.444 95.5986 188.446 94.087 187.609L8.34337 140.085C4.81628 138.13 4.9355 133.019 8.54992 131.23L94.2943 88.8063Z" fill="#0056F6"/>
  <path d="M94.2943 66.6227C95.6951 65.9297 97.3394 65.9315 98.7387 66.6276L184.006 109.049C187.607 110.84 187.727 115.934 184.213 117.893L98.9452 165.419C97.4356 166.261 95.5986 166.263 94.087 165.425L8.34337 117.901C4.81628 115.946 4.9355 110.835 8.54992 109.047L94.2943 66.6227Z" fill="#5892FF" fill-opacity="0.8"/>
  <path d="M94.2943 44.4392C95.6951 43.7461 97.3394 43.7479 98.7387 44.444L184.006 86.865C187.607 88.6566 187.727 93.7508 184.213 95.709L98.9452 143.236C97.4356 144.077 95.5986 144.079 94.087 143.241L8.34337 95.7177C4.81628 93.7628 4.9355 88.6513 8.54992 86.863L94.2943 44.4392Z" fill="#BDD4FF" fill-opacity="0.8"/>
  <circle cx="96" cy="100" r="25" fill="#0056F6" fill-opacity="0.5"/>
  <rect x="94" y="85" width="4" height="30" rx="2" fill="white" fill-opacity="0.8"/>
  <rect x="111" y="98.209" width="4" height="30" rx="2" transform="rotate(90 111 98.209)" fill="white" fill-opacity="0.8"/>
</svg>