<svg width="18" height="18" viewBox="0 0 18 18" fill="none" xmlns="http://www.w3.org/2000/svg">
  <path id="Vector" d="M16.8967 18L10.3208 11.4238C9.79729 11.8561 9.19526 12.1943 8.51472 12.4386C7.83417 12.6829 7.13015 12.8051 6.40266 12.8051C4.61316 12.8051 3.09868 12.1855 1.85921 10.9464C0.619736 9.70726 0 8.19313 0 6.40398C0 4.61501 0.619561 3.10036 1.85868 1.86001C3.09781 0.619841 4.61194 -0.000244141 6.40109 -0.000244141C8.19006 -0.000244141 9.70472 0.619491 10.9451 1.85896C12.1852 3.09843 12.8053 4.61292 12.8053 6.40241C12.8053 7.15015 12.6798 7.86429 12.4289 8.54483C12.1778 9.22538 11.8429 9.81729 11.4241 10.3205L18 16.8965L16.8967 18ZM6.40266 11.2348C7.75171 11.2348 8.89434 10.7667 9.83053 9.83029C10.7669 8.8941 11.2351 7.75147 11.2351 6.40241C11.2351 5.05336 10.7669 3.91073 9.83053 2.97454C8.89434 2.03817 7.75171 1.56999 6.40266 1.56999C5.0536 1.56999 3.91098 2.03817 2.97478 2.97454C2.03842 3.91073 1.57024 5.05336 1.57024 6.40241C1.57024 7.75147 2.03842 8.8941 2.97478 9.83029C3.91098 10.7667 5.0536 11.2348 6.40266 11.2348Z" fill="#5F6368"/>
</svg>
