<svg xmlns="http://www.w3.org/2000/svg" width="19" height="18" viewBox="0 0 19 18" fill="none">
  <g clip-path="url(#clip0_254_343)">
    <path d="M2.65234 15.9999C2.1906 15.9999 1.79978 15.84 1.47987 15.5201C1.15996 15.2001 1 14.8093 1 14.3476V3.94181C1 3.48007 1.15996 3.08925 1.47987 2.76934C1.79978 2.44943 2.1906 2.28947 2.65234 2.28947H16.7142C17.176 2.28947 17.5668 2.44943 17.8867 2.76934C18.2066 3.08925 18.3666 3.48007 18.3666 3.94181V14.3476C18.3666 14.8093 18.2066 15.2001 17.8867 15.5201C17.5668 15.84 17.176 15.9999 16.7142 15.9999H2.65234ZM9.68328 9.6545L2.37104 4.97878V14.3476C2.37104 14.4297 2.3974 14.4971 2.45011 14.5498C2.50282 14.6025 2.57023 14.6289 2.65234 14.6289H16.7142C16.7963 14.6289 16.8638 14.6025 16.9165 14.5498C16.9692 14.4971 16.9955 14.4297 16.9955 14.3476V4.97878L9.68328 9.6545ZM9.68328 8.23067L16.855 3.66052H2.51158L9.68328 8.23067ZM2.37104 4.97878V3.66052V14.3476C2.37104 14.4297 2.3974 14.4971 2.45011 14.5498C2.50282 14.6025 2.57023 14.6289 2.65234 14.6289H2.37104V4.97878Z" fill="white"/>
  </g>
  <defs>
    <clipPath id="clip0_254_343">
      <rect width="18" height="18" fill="white" transform="translate(0.5)"/>
    </clipPath>
  </defs>
</svg>