<svg xmlns="http://www.w3.org/2000/svg" width="24" height="24" viewBox="0 0 24 24" fill="none">
  <path d="M15.7731 12.9729L14.6501 11.8499C14.8001 11.0218 14.5638 10.2772 13.9413 9.61619C13.319 8.95536 12.5552 8.69994 11.6501 8.84994L10.5271 7.72694C10.7527 7.62561 10.9842 7.54961 11.2213 7.49894C11.4585 7.44828 11.7181 7.42294 12.0001 7.42294C13.1347 7.42294 14.0979 7.81878 14.8896 8.61044C15.6812 9.40211 16.0771 10.3653 16.0771 11.4999C16.0771 11.7819 16.0517 12.0448 16.0011 12.2884C15.9504 12.5319 15.8744 12.7601 15.7731 12.9729ZM18.9538 16.0844L17.8501 15.0499C18.4834 14.5666 19.0459 14.0374 19.5376 13.4624C20.0292 12.8874 20.4501 12.2333 20.8001 11.4999C19.9667 9.81661 18.7709 8.47911 17.2126 7.48744C15.6542 6.49578 13.9167 5.99994 12.0001 5.99994C11.5167 5.99994 11.0417 6.03328 10.5751 6.09994C10.1084 6.16661 9.65007 6.26661 9.20007 6.39994L8.03482 5.23469C8.66682 4.98336 9.31233 4.79811 9.97132 4.67894C10.6303 4.55961 11.3066 4.49994 12.0001 4.49994C14.3436 4.49994 16.457 5.14611 18.3403 6.43844C20.2237 7.73077 21.5974 9.41794 22.4616 11.4999C22.0911 12.3934 21.6126 13.2274 21.0261 14.0019C20.4394 14.7763 19.7487 15.4704 18.9538 16.0844ZM19.7616 21.8692L15.7156 17.8537C15.2027 18.0435 14.6344 18.1987 14.0106 18.3192C13.3869 18.4397 12.7167 18.4999 12.0001 18.4999C9.65007 18.4999 7.53666 17.8538 5.65982 16.5614C3.78282 15.2691 2.40907 13.5819 1.53857 11.4999C1.90774 10.6166 2.38466 9.79261 2.96932 9.02794C3.55399 8.26311 4.19757 7.59994 4.90007 7.03844L2.13082 4.23844L3.18482 3.18469L20.8153 20.8152L19.7616 21.8692ZM5.95407 8.09219C5.42574 8.51269 4.91191 9.01819 4.41257 9.60869C3.91324 10.199 3.50907 10.8294 3.20007 11.4999C4.03341 13.1833 5.22924 14.5208 6.78757 15.5124C8.34591 16.5041 10.0834 16.9999 12.0001 16.9999C12.4552 16.9999 12.9085 16.9614 13.3598 16.8844C13.811 16.8076 14.1937 16.7282 14.5078 16.6462L13.2423 15.3499C13.0718 15.4191 12.8744 15.4742 12.6501 15.5152C12.4257 15.5564 12.2091 15.5769 12.0001 15.5769C10.8654 15.5769 9.90224 15.1811 9.11058 14.3894C8.31891 13.5978 7.92307 12.6346 7.92307 11.4999C7.92307 11.2974 7.94366 11.0856 7.98483 10.8644C8.02583 10.6433 8.08091 10.441 8.15007 10.2577L5.95407 8.09219Z" fill="#7E7E7E"/>
</svg>