<svg xmlns="http://www.w3.org/2000/svg" width="20" height="20" viewBox="0 0 20 20" fill="none">
  <path d="M6.08979 17.0834C5.67424 17.0834 5.31924 16.9362 5.02479 16.6419C4.73049 16.3475 4.58333 15.9925 4.58333 15.5769V5.00002H3.75V3.75002H7.5V3.01294H12.5V3.75002H16.25V5.00002H15.4167V15.5769C15.4167 15.9979 15.2708 16.3542 14.9792 16.6459C14.6875 16.9375 14.3312 17.0834 13.9102 17.0834H6.08979ZM14.1667 5.00002H5.83333V15.5769C5.83333 15.6518 5.85736 15.7132 5.90542 15.7613C5.95347 15.8093 6.01493 15.8334 6.08979 15.8334H13.9102C13.9744 15.8334 14.0331 15.8066 14.0865 15.7531C14.1399 15.6998 14.1667 15.6411 14.1667 15.5769V5.00002ZM7.83667 14.1667H9.08646V6.66669H7.83667V14.1667ZM10.9135 14.1667H12.1633V6.66669H10.9135V14.1667Z" fill="#5F6368"/>
</svg>