<svg xmlns="http://www.w3.org/2000/svg" width="20" height="20" viewBox="0 0 20 20" fill="none">
  <path d="M4.16666 15.8332H5.21791L13.7483 7.30275L12.6971 6.2515L4.16666 14.7819V15.8332ZM2.91666 17.0832V14.2628L13.9087 3.27546C14.0347 3.16102 14.1738 3.07262 14.326 3.01025C14.4784 2.94775 14.6381 2.9165 14.8052 2.9165C14.9723 2.9165 15.1341 2.94616 15.2906 3.00546C15.4473 3.06477 15.586 3.15907 15.7067 3.28838L16.7244 4.3188C16.8537 4.43949 16.9458 4.57838 17.0008 4.73546C17.0558 4.89255 17.0833 5.04963 17.0833 5.20671C17.0833 5.37435 17.0547 5.53428 16.9975 5.6865C16.9403 5.83887 16.8492 5.97803 16.7244 6.104L5.73707 17.0832H2.91666ZM13.2135 6.7863L12.6971 6.2515L13.7483 7.30275L13.2135 6.7863Z" fill="#5F6368"/>
</svg>