<svg xmlns="http://www.w3.org/2000/svg" width="26" height="30" viewBox="0 0 26 30" fill="none">
  <path d="M2.96163 29.0191C2.21362 29.0191 1.57463 28.7542 1.04463 28.2245C0.514875 27.6945 0.25 27.0555 0.25 26.3075V6.23071C0.25 5.48271 0.514875 4.84371 1.04463 4.31371C1.57463 3.78396 2.21362 3.51909 2.96163 3.51909H9.57025C9.778 2.78834 10.2025 2.18259 10.8438 1.70184C11.485 1.22109 12.2038 0.980713 13 0.980713C13.827 0.980713 14.5573 1.22109 15.1908 1.70184C15.8245 2.18259 16.2453 2.78834 16.453 3.51909H23.0384C23.7864 3.51909 24.4254 3.78396 24.9554 4.31371C25.4851 4.84371 25.75 5.48271 25.75 6.23071V26.3075C25.75 27.0555 25.4851 27.6945 24.9554 28.2245C24.4254 28.7542 23.7864 29.0191 23.0384 29.0191H2.96163ZM2.96163 26.7691H23.0384C23.1539 26.7691 23.2596 26.721 23.3556 26.6247C23.4519 26.5287 23.5 26.423 23.5 26.3075V6.23071C23.5 6.11521 23.4519 6.00946 23.3556 5.91346C23.2596 5.81721 23.1539 5.76909 23.0384 5.76909H19.75V9.69196H6.25V5.76909H2.96163C2.84613 5.76909 2.74038 5.81721 2.64438 5.91346C2.54813 6.00946 2.5 6.11521 2.5 6.23071V26.3075C2.5 26.423 2.54813 26.5287 2.64438 26.6247C2.74038 26.721 2.84613 26.7691 2.96163 26.7691ZM13 5.94234C13.3865 5.94234 13.7091 5.81296 13.9679 5.55421C14.2264 5.29546 14.3556 4.97284 14.3556 4.58634C14.3556 4.19984 14.2264 3.87721 13.9679 3.61846C13.7091 3.35996 13.3865 3.23071 13 3.23071C12.6135 3.23071 12.2909 3.35996 12.0321 3.61846C11.7736 3.87721 11.6444 4.19984 11.6444 4.58634C11.6444 4.97284 11.7736 5.29546 12.0321 5.55421C12.2909 5.81296 12.6135 5.94234 13 5.94234Z" fill="#5F6368"/>
</svg>