<svg xmlns="http://www.w3.org/2000/svg" width="26" height="30" viewBox="0 0 26 30" fill="none">
  <path d="M2.76479 29.6177C1.99219 29.6177 1.33824 29.35 0.802941 28.8147C0.267647 28.2794 0 27.6255 0 26.8529V6.38245C0 5.60984 0.267647 4.95589 0.802941 4.4206C1.33824 3.8853 1.99219 3.61766 2.76479 3.61766H4.88227V0.382568H7.23527V3.61766H18.8236V0.382568H21.1177V3.61766H23.2352C24.0078 3.61766 24.6618 3.8853 25.1971 4.4206C25.7324 4.95589 26 5.60984 26 6.38245V26.8529C26 27.6255 25.7324 28.2794 25.1971 28.8147C24.6618 29.35 24.0078 29.6177 23.2352 29.6177H2.76479ZM2.76479 27.3235H23.2352C23.353 27.3235 23.4608 27.2745 23.5587 27.1763C23.6568 27.0785 23.7059 26.9706 23.7059 26.8529V12.5001H2.29412V26.8529C2.29412 26.9706 2.34319 27.0785 2.44132 27.1763C2.53921 27.2745 2.64703 27.3235 2.76479 27.3235ZM2.29412 10.206H23.7059V6.38245C23.7059 6.26469 23.6568 6.15686 23.5587 6.05898C23.4608 5.96084 23.353 5.91177 23.2352 5.91177H2.76479C2.64703 5.91177 2.53921 5.96084 2.44132 6.05898C2.34319 6.15686 2.29412 6.26469 2.29412 6.38245V10.206ZM13 18.2648C12.6255 18.2648 12.3064 18.1329 12.0426 17.8691C11.779 17.6055 11.6472 17.2864 11.6472 16.9117C11.6472 16.5372 11.779 16.2181 12.0426 15.9543C12.3064 15.6907 12.6255 15.5589 13 15.5589C13.3745 15.5589 13.6936 15.6907 13.9574 15.9543C14.221 16.2181 14.3528 16.5372 14.3528 16.9117C14.3528 17.2864 14.221 17.6055 13.9574 17.8691C13.6936 18.1329 13.3745 18.2648 13 18.2648ZM6.88235 18.2648C6.5079 18.2648 6.18876 18.1329 5.92494 17.8691C5.66137 17.6055 5.52959 17.2864 5.52959 16.9117C5.52959 16.5372 5.66137 16.2181 5.92494 15.9543C6.18876 15.6907 6.5079 15.5589 6.88235 15.5589C7.2568 15.5589 7.57594 15.6907 7.83977 15.9543C8.10333 16.2181 8.23512 16.5372 8.23512 16.9117C8.23512 17.2864 8.10333 17.6055 7.83977 17.8691C7.57594 18.1329 7.2568 18.2648 6.88235 18.2648ZM19.1176 18.2648C18.7432 18.2648 18.4241 18.1329 18.1602 17.8691C17.8967 17.6055 17.7649 17.2864 17.7649 16.9117C17.7649 16.5372 17.8967 16.2181 18.1602 15.9543C18.4241 15.6907 18.7432 15.5589 19.1176 15.5589C19.4921 15.5589 19.8112 15.6907 20.0751 15.9543C20.3386 16.2181 20.4704 16.5372 20.4704 16.9117C20.4704 17.2864 20.3386 17.6055 20.0751 17.8691C19.8112 18.1329 19.4921 18.2648 19.1176 18.2648ZM13 24.2647C12.6255 24.2647 12.3064 24.1328 12.0426 23.869C11.779 23.6054 11.6472 23.2864 11.6472 22.912C11.6472 22.5372 11.779 22.2181 12.0426 21.9545C12.3064 21.6907 12.6255 21.5588 13 21.5588C13.3745 21.5588 13.6936 21.6907 13.9574 21.9545C14.221 22.2181 14.3528 22.5372 14.3528 22.912C14.3528 23.2864 14.221 23.6054 13.9574 23.869C13.6936 24.1328 13.3745 24.2647 13 24.2647ZM6.88235 24.2647C6.5079 24.2647 6.18876 24.1328 5.92494 23.869C5.66137 23.6054 5.52959 23.2864 5.52959 22.912C5.52959 22.5372 5.66137 22.2181 5.92494 21.9545C6.18876 21.6907 6.5079 21.5588 6.88235 21.5588C7.2568 21.5588 7.57594 21.6907 7.83977 21.9545C8.10333 22.2181 8.23512 22.5372 8.23512 22.912C8.23512 23.2864 8.10333 23.6054 7.83977 23.869C7.57594 24.1328 7.2568 24.2647 6.88235 24.2647ZM19.1176 24.2647C18.7432 24.2647 18.4241 24.1328 18.1602 23.869C17.8967 23.6054 17.7649 23.2864 17.7649 22.912C17.7649 22.5372 17.8967 22.2181 18.1602 21.9545C18.4241 21.6907 18.7432 21.5588 19.1176 21.5588C19.4921 21.5588 19.8112 21.6907 20.0751 21.9545C20.3386 22.2181 20.4704 22.5372 20.4704 22.912C20.4704 23.2864 20.3386 23.6054 20.0751 23.869C19.8112 24.1328 19.4921 24.2647 19.1176 24.2647Z" fill="#5F6368"/>
</svg>