<svg xmlns="http://www.w3.org/2000/svg" width="28" height="24" viewBox="0 0 28 24" fill="none">
  <path d="M25.9616 22.6453V2.40241C25.9616 2.28301 25.9232 2.18499 25.8466 2.10835C25.77 2.0317 25.6719 1.99338 25.5525 1.99338H2.44708C2.32769 1.99338 2.22967 2.0317 2.15302 2.10835C2.07638 2.18499 2.03806 2.28301 2.03806 2.40241V12.6261H0.0444336V2.40241C0.0444336 1.74163 0.279681 1.17599 0.750177 0.705499C1.22067 0.235003 1.78631 -0.000244141 2.44708 -0.000244141H25.5525C26.2133 -0.000244141 26.7789 0.235003 27.2494 0.705499C27.7199 1.17599 27.9552 1.74163 27.9552 2.40241V20.4088C27.9552 20.9865 27.763 21.4887 27.3787 21.9153C26.9946 22.3422 26.5222 22.5855 25.9616 22.6453ZM10.0126 13.8784C8.73332 13.8784 7.63826 13.4229 6.7274 12.5121C5.81631 11.601 5.36077 10.5058 5.36077 9.22659C5.36077 7.94734 5.81631 6.85229 6.7274 5.94142C7.63826 5.03034 8.73332 4.57479 10.0126 4.57479C11.2918 4.57479 12.3869 5.03034 13.2977 5.94142C14.2088 6.85229 14.6644 7.94734 14.6644 9.22659C14.6644 10.5058 14.2088 11.601 13.2977 12.5121C12.3869 13.4229 11.2918 13.8784 10.0126 13.8784ZM10.0126 11.8848C10.7436 11.8848 11.3693 11.6245 11.8899 11.1039C12.4104 10.5834 12.6707 9.95758 12.6707 9.22659C12.6707 8.49559 12.4104 7.86981 11.8899 7.34926C11.3693 6.8287 10.7436 6.56842 10.0126 6.56842C9.28156 6.56842 8.65579 6.8287 8.13523 7.34926C7.61467 7.86981 7.35439 8.49559 7.35439 9.22659C7.35439 9.95758 7.61467 10.5834 8.13523 11.1039C8.65579 11.6245 9.28156 11.8848 10.0126 11.8848ZM0.0444336 24V21.0451C0.0444336 20.3943 0.221202 19.7916 0.574738 19.2369C0.928274 18.6822 1.40076 18.2558 1.99221 17.9577C3.30578 17.3137 4.63099 16.8307 5.96783 16.5086C7.30466 16.1866 8.65291 16.0255 10.0126 16.0255C11.3722 16.0255 12.7205 16.1866 14.0573 16.5086C15.3941 16.8307 16.7193 17.3137 18.0329 17.9577C18.6244 18.2558 19.0968 18.6822 19.4504 19.2369C19.8039 19.7916 19.9807 20.3943 19.9807 21.0451V24H0.0444336ZM2.03806 22.0064H17.9871V21.0451C17.9871 20.776 17.9091 20.5268 17.7531 20.2975C17.5972 20.0685 17.3855 19.8815 17.1182 19.7366C15.9729 19.1727 14.8053 18.7454 13.6154 18.4548C12.4252 18.1643 11.2242 18.0191 10.0126 18.0191C8.80088 18.0191 7.59994 18.1643 6.40975 18.4548C5.21977 18.7454 4.05217 19.1727 2.90695 19.7366C2.63958 19.8815 2.42792 20.0685 2.27198 20.2975C2.11603 20.5268 2.03806 20.776 2.03806 21.0451V22.0064Z" fill="#5F6368"/>
</svg>