<svg xmlns="http://www.w3.org/2000/svg" width="26" height="26" viewBox="0 0 26 26" fill="none">
  <path d="M2.96163 25.75C2.20387 25.75 1.5625 25.4875 1.0375 24.9625C0.5125 24.4375 0.25 23.7961 0.25 23.0384V2.96163C0.25 2.20387 0.5125 1.5625 1.0375 1.0375C1.5625 0.5125 2.20387 0.25 2.96163 0.25H23.0384C23.7961 0.25 24.4375 0.5125 24.9625 1.0375C25.4875 1.5625 25.75 2.20387 25.75 2.96163V23.0384C25.75 23.7961 25.4875 24.4375 24.9625 24.9625C24.4375 25.4875 23.7961 25.75 23.0384 25.75H2.96163ZM2.96163 23.5H11.875V2.5H2.96163C2.84613 2.5 2.74038 2.54812 2.64438 2.64437C2.54813 2.74037 2.5 2.84613 2.5 2.96163V23.0384C2.5 23.1539 2.54813 23.2596 2.64438 23.3556C2.74038 23.4519 2.84613 23.5 2.96163 23.5ZM14.125 23.5H23.0384C23.1539 23.5 23.2596 23.4519 23.3556 23.3556C23.4519 23.2596 23.5 23.1539 23.5 23.0384V13H14.125V23.5ZM14.125 10.75H23.5V2.96163C23.5 2.84613 23.4519 2.74037 23.3556 2.64437C23.2596 2.54812 23.1539 2.5 23.0384 2.5H14.125V10.75Z" fill="#0056F6"/>
</svg>