<svg xmlns="http://www.w3.org/2000/svg" width="24" height="25" viewBox="0 0 24 25" fill="none">
  <path d="M12 12.4886C11.0375 12.4886 10.2136 12.146 9.52825 11.4606C8.84275 10.7751 8.5 9.95115 8.5 8.98865C8.5 8.02615 8.84275 7.20223 9.52825 6.5169C10.2136 5.8314 11.0375 5.48865 12 5.48865C12.9625 5.48865 13.7864 5.8314 14.4718 6.5169C15.1573 7.20223 15.5 8.02615 15.5 8.98865C15.5 9.95115 15.1573 10.7751 14.4718 11.4606C13.7864 12.146 12.9625 12.4886 12 12.4886ZM4.5 20.1041V17.8809C4.5 17.3912 4.633 16.9377 4.899 16.5204C5.165 16.1031 5.5205 15.7822 5.9655 15.5579C6.95383 15.0734 7.95092 14.71 8.95675 14.4676C9.96258 14.2253 10.977 14.1041 12 14.1041C13.023 14.1041 14.0374 14.2253 15.0433 14.4676C16.0491 14.71 17.0462 15.0734 18.0345 15.5579C18.4795 15.7822 18.835 16.1031 19.101 16.5204C19.367 16.9377 19.5 17.3912 19.5 17.8809V20.1041H4.5ZM6 18.6041H18V17.8809C18 17.6784 17.9413 17.4909 17.824 17.3184C17.7067 17.1461 17.5474 17.0054 17.3462 16.8964C16.4846 16.4721 15.6061 16.1506 14.7107 15.9319C13.8153 15.7134 12.9117 15.6041 12 15.6041C11.0883 15.6041 10.1848 15.7134 9.28925 15.9319C8.39392 16.1506 7.51542 16.4721 6.65375 16.8964C6.45258 17.0054 6.29333 17.1461 6.176 17.3184C6.05867 17.4909 6 17.6784 6 17.8809V18.6041ZM12 10.9886C12.55 10.9886 13.0208 10.7928 13.4125 10.4011C13.8042 10.0095 14 9.53865 14 8.98865C14 8.43865 13.8042 7.96781 13.4125 7.57615C13.0208 7.18448 12.55 6.98865 12 6.98865C11.45 6.98865 10.9792 7.18448 10.5875 7.57615C10.1958 7.96781 10 8.43865 10 8.98865C10 9.53865 10.1958 10.0095 10.5875 10.4011C10.9792 10.7928 11.45 10.9886 12 10.9886Z" fill="#CACACA"/>
</svg>