<svg xmlns="http://www.w3.org/2000/svg" width="161" height="37" viewBox="0 0 161 37" fill="none">
  <path d="M24.8322 25.5002V27.0718C24.8322 28.303 24.5703 29.4947 24.0464 30.6473C23.5224 31.7736 22.7366 32.7822 21.6889 33.6728C20.6673 34.5633 19.3707 35.2706 17.799 35.7945C16.2535 36.3446 14.4593 36.6196 12.4161 36.6196C10.5563 36.6196 8.86677 36.3577 7.3475 35.8338C5.82824 35.3362 4.51852 34.6158 3.41836 33.6728C2.34438 32.7559 1.50618 31.6428 0.903703 30.333C0.301234 28.9971 0 27.5172 0 25.8931V21.4924C0 19.8683 0.301234 18.4015 0.903703 17.0918C1.50618 15.7559 2.34438 14.6296 3.41836 13.7127C4.51852 12.7697 5.82824 12.0494 7.3475 11.5517C8.86677 11.0278 10.5563 10.7659 12.4161 10.7659C14.3807 10.7659 16.1226 11.0409 17.6419 11.591C19.1874 12.1149 20.484 12.8221 21.5317 13.7127C22.6057 14.6033 23.4177 15.6249 23.9678 16.7775C24.544 17.93 24.8322 19.1088 24.8322 20.3137V21.4924H17.1311V20.7066C17.1311 20.209 17.0132 19.7375 16.7774 19.2921C16.5678 18.8206 16.2535 18.4015 15.8345 18.0348C15.4415 17.668 14.9569 17.38 14.3807 17.1704C13.8044 16.9346 13.1495 16.8167 12.4161 16.8167C11.6827 16.8167 11.0278 16.9478 10.4515 17.2097C9.87525 17.4715 9.37755 17.8383 8.95845 18.3098C8.56554 18.7552 8.2512 19.2921 8.01545 19.9208C7.80589 20.5233 7.70112 21.1781 7.70112 21.8853V25.5002C7.70112 26.2074 7.80589 26.8754 8.01545 27.504C8.2512 28.1065 8.56554 28.6435 8.95845 29.115C9.37755 29.5603 9.87525 29.9139 10.4515 30.1758C11.0278 30.4377 11.6827 30.5687 12.4161 30.5687C13.1495 30.5687 13.8044 30.464 14.3807 30.2544C14.9569 30.0187 15.4415 29.7175 15.8345 29.3507C16.2535 28.9839 16.5678 28.578 16.7774 28.1327C17.0132 27.6612 17.1311 27.1765 17.1311 26.6789V25.5002H24.8322ZM27.9906 2.86828H35.6917V28.6435C35.6917 29.3246 35.8619 29.7829 36.2025 30.0187C36.543 30.2283 36.9884 30.333 37.5384 30.333H39.1101V36.6196H37.0669C35.469 36.6196 34.0938 36.4232 32.9413 36.0303C31.8149 35.6373 30.885 35.0873 30.1516 34.38C29.4181 33.6728 28.868 32.8215 28.5014 31.8261C28.1608 30.8306 27.9906 29.7175 27.9906 28.4863V2.86828ZM49.9548 36.6196C48.6189 36.6196 47.3616 36.4625 46.1829 36.1481C45.0041 35.8338 43.9825 35.3755 43.1181 34.7729C42.2537 34.1704 41.5595 33.4109 41.0357 32.494C40.5379 31.6035 40.2891 30.5687 40.2891 29.39C40.2891 28.1588 40.4725 27.0457 40.8392 26.0502C41.2321 25.0548 41.8477 24.1904 42.6859 23.457C43.5503 22.6973 44.6635 22.0818 46.0257 21.6103C47.4139 21.1127 49.1166 20.7459 51.1336 20.5101L57.0273 19.8422V19.2921C57.0273 18.2967 56.6344 17.6026 55.8486 17.2097C55.0627 16.7906 54.0149 16.581 52.7052 16.581C51.4479 16.581 50.4786 16.8036 49.7977 17.2489C49.1166 17.668 48.7761 18.2181 48.7761 18.8992V19.2921H41.075V18.5063C41.075 17.4586 41.35 16.4763 41.9001 15.5594C42.4502 14.6164 43.2229 13.8044 44.2183 13.1233C45.2399 12.4423 46.4579 11.9053 47.8724 11.5124C49.313 11.1195 50.924 10.923 52.7052 10.923C54.4078 10.923 55.9926 11.1326 57.4595 11.5517C58.9263 11.9708 60.1968 12.5471 61.2708 13.2805C62.3446 14.0139 63.1829 14.9046 63.7854 15.9523C64.4141 16.9739 64.7284 18.0872 64.7284 19.2921V36.1088H57.4202V34.6944C56.6867 35.2183 55.639 35.6635 54.2769 36.0303C52.9147 36.4232 51.4741 36.6196 49.9548 36.6196ZM52.3123 21.571C52.2599 22.4879 52.0241 23.3653 51.6051 24.2035C51.1859 25.0155 50.6358 25.7359 49.9548 26.3646C49.2999 26.9671 48.5403 27.4647 47.6759 27.8576C46.8377 28.2244 45.9601 28.4209 45.0434 28.447C45.9864 28.4994 46.8901 28.722 47.7545 29.115C48.6451 29.5079 49.4178 30.0187 50.0727 30.6473C50.7537 31.276 51.2908 31.9964 51.6837 32.8084C52.1027 33.6466 52.3123 34.511 52.3123 35.4016C52.3123 34.511 52.5088 33.6466 52.9017 32.8084C53.2946 31.9964 53.8184 31.276 54.4734 30.6473C55.1543 29.9925 55.9271 29.4686 56.7915 29.0757C57.6821 28.6828 58.599 28.4602 59.542 28.4077C58.6251 28.3816 57.7345 28.1851 56.8701 27.8183C56.0319 27.4254 55.2722 26.9278 54.5912 26.3253C53.9363 25.6966 53.3993 24.9762 52.9803 24.1642C52.5611 23.3523 52.3385 22.4879 52.3123 21.571ZM78.648 36.7768C76.7357 36.6982 75.0332 36.41 73.5401 35.9124C72.0732 35.4147 70.842 34.7598 69.8467 33.9478C68.8513 33.162 68.1179 32.2321 67.6464 31.1581C67.2011 30.0841 67.057 28.9317 67.2142 27.7005H74.2867C74.1818 28.172 74.2604 28.591 74.5224 28.9578C74.7843 29.3246 75.1379 29.6519 75.5833 29.9401C76.0285 30.202 76.5393 30.4116 77.1157 30.5687C77.718 30.6998 78.2944 30.7784 78.8445 30.8045C80.1541 30.8569 81.1757 30.6866 81.9092 30.2937C82.6426 29.8746 83.0094 29.39 83.0094 28.8399C83.0094 28.447 82.7736 28.1195 82.3021 27.8576C81.8568 27.5695 81.3328 27.3207 80.7305 27.1111L73.8152 24.8322C72.0339 24.2297 70.6326 23.3784 69.611 22.2783C68.6156 21.1519 68.1179 19.7897 68.1179 18.1919C68.1179 16.9608 68.406 15.8869 68.9823 14.97C69.5847 14.027 70.3837 13.2543 71.3791 12.6518C72.3744 12.0232 73.527 11.5517 74.8368 11.2374C76.1727 10.923 77.5872 10.7659 79.0802 10.7659C80.5733 10.7659 81.9746 10.9754 83.2844 11.3945C84.594 11.7874 85.7205 12.3375 86.6635 13.0448C87.6065 13.7259 88.3137 14.5378 88.7852 15.4808C89.2567 16.4238 89.4007 17.4454 89.2174 18.5456H82.5379C82.564 18.1527 82.4723 17.8252 82.2628 17.5633C82.0794 17.2751 81.8175 17.0525 81.477 16.8953C81.1364 16.712 80.7435 16.581 80.2983 16.5024C79.8791 16.4238 79.46 16.3845 79.0409 16.3845C78.1502 16.3845 77.3907 16.5024 76.762 16.7382C76.1334 16.9739 75.819 17.2751 75.819 17.6419C75.819 18.0086 75.9762 18.3098 76.2905 18.5456C76.6049 18.7813 77.1025 19.0432 77.7836 19.3314L85.6026 22.1211C86.3621 22.4093 87.0694 22.7498 87.7243 23.1427C88.3792 23.5094 88.9424 23.9678 89.4139 24.5179C89.8854 25.0418 90.239 25.6573 90.4747 26.3646C90.7105 27.0718 90.8021 27.8838 90.7498 28.8006C90.6712 29.9794 90.3176 31.0664 89.6889 32.0618C89.0603 33.0834 88.2088 33.9478 87.135 34.6551C86.0871 35.3884 84.8429 35.9385 83.4023 36.3053C81.9615 36.6982 80.3768 36.8554 78.648 36.7768ZM103.55 36.7768C101.638 36.6982 99.9357 36.41 98.4426 35.9124C96.9757 35.4147 95.7445 34.7598 94.7492 33.9478C93.7538 33.162 93.0204 32.2321 92.5489 31.1581C92.1035 30.0841 91.9595 28.9317 92.1167 27.7005H99.1891C99.0843 28.172 99.1628 28.591 99.4249 28.9578C99.6868 29.3246 100.04 29.6519 100.486 29.9401C100.931 30.202 101.442 30.4116 102.018 30.5687C102.62 30.6998 103.197 30.7784 103.747 30.8045C105.057 30.8569 106.078 30.6866 106.812 30.2937C107.545 29.8746 107.912 29.39 107.912 28.8399C107.912 28.447 107.676 28.1195 107.205 27.8576C106.759 27.5695 106.235 27.3207 105.633 27.1111L98.7176 24.8322C96.9364 24.2297 95.535 23.3784 94.5135 22.2783C93.518 21.1519 93.0204 19.7897 93.0204 18.1919C93.0204 16.9608 93.3084 15.8869 93.8848 14.97C94.4872 14.027 95.2861 13.2543 96.2816 12.6518C97.2768 12.0232 98.4295 11.5517 99.7392 11.2374C101.075 10.923 102.49 10.7659 103.983 10.7659C105.476 10.7659 106.877 10.9754 108.187 11.3945C109.496 11.7874 110.623 12.3375 111.566 13.0448C112.509 13.7259 113.216 14.5378 113.688 15.4808C114.159 16.4238 114.303 17.4454 114.12 18.5456H107.44C107.466 18.1527 107.375 17.8252 107.165 17.5633C106.982 17.2751 106.72 17.0525 106.379 16.8953C106.039 16.712 105.646 16.581 105.201 16.5024C104.782 16.4238 104.362 16.3845 103.943 16.3845C103.053 16.3845 102.293 16.5024 101.664 16.7382C101.036 16.9739 100.722 17.2751 100.722 17.6419C100.722 18.0086 100.879 18.3098 101.193 18.5456C101.507 18.7813 102.005 19.0432 102.686 19.3314L110.505 22.1211C111.265 22.4093 111.972 22.7498 112.627 23.1427C113.282 23.5094 113.845 23.9678 114.316 24.5179C114.788 25.0418 115.141 25.6573 115.377 26.3646C115.613 27.0718 115.705 27.8838 115.652 28.8006C115.574 29.9794 115.22 31.0664 114.591 32.0618C113.963 33.0834 113.111 33.9478 112.037 34.6551C110.99 35.3884 109.745 35.9385 108.305 36.3053C106.864 36.6982 105.279 36.8554 103.55 36.7768ZM132.618 6.4438H130.693C129.828 6.4438 129.121 6.70574 128.571 7.22963C128.047 7.72732 127.785 8.60483 127.785 9.86216V11.1588H132.814V17.4454H127.785V36.1088H120.084V17.4454H116.705V11.1588H120.084V10.0979C120.084 8.762 120.241 7.49157 120.555 6.28663C120.896 5.0817 121.433 4.03392 122.166 3.14332C122.9 2.22651 123.869 1.50618 125.074 0.982289C126.279 0.432209 127.772 0.157169 129.553 0.157169H132.618V6.4438ZM138.617 8.7227C137.989 8.7227 137.412 8.61793 136.888 8.40837C136.364 8.17262 135.919 7.85829 135.552 7.46538C135.186 7.07246 134.897 6.61407 134.688 6.09018C134.478 5.56629 134.374 5.00312 134.374 4.40065C134.374 3.79817 134.478 3.235 134.688 2.71111C134.897 2.16103 135.186 1.68954 135.552 1.29662C135.919 0.903706 136.364 0.589375 136.888 0.353626C137.412 0.117877 137.989 0 138.617 0C139.875 0 140.896 0.432209 141.682 1.29662C142.468 2.13484 142.861 3.16951 142.861 4.40065C142.861 5.00312 142.756 5.56629 142.546 6.09018C142.337 6.61407 142.036 7.07246 141.643 7.46538C141.276 7.85829 140.831 8.17262 140.307 8.40837C139.809 8.61793 139.246 8.7227 138.617 8.7227ZM134.767 11.3159H142.468V36.1088H134.767V11.3159ZM160.4 36.1088H156.981C155.2 36.1088 153.72 35.8207 152.541 35.2444C151.363 34.6943 150.432 33.9347 149.751 32.9655C149.07 32.0225 148.585 30.9224 148.297 29.665C148.035 28.3816 147.904 27.0325 147.904 25.618V17.6419H144.447V11.3552H147.904V2.82899H155.606V11.3552H160.4V17.6419H155.606V26.1681C155.606 27.4516 155.868 28.3816 156.392 28.9578C156.942 29.534 157.689 29.8222 158.632 29.8222H160.4V36.1088Z" fill="#0056F6"/>
</svg>