<svg xmlns="http://www.w3.org/2000/svg" width="24" height="25" viewBox="0 0 24 25" fill="none">
  <path d="M6.30775 9.29639H15V7.29639C15 6.46305 14.7083 5.75472 14.125 5.17139C13.5417 4.58805 12.8333 4.29639 12 4.29639C11.1667 4.29639 10.4583 4.58805 9.875 5.17139C9.29167 5.75472 9 6.46305 9 7.29639H7.5C7.5 6.04772 7.93783 4.98555 8.8135 4.10989C9.68917 3.23422 10.7513 2.79639 12 2.79639C13.2487 2.79639 14.3108 3.23422 15.1865 4.10989C16.0622 4.98555 16.5 6.04772 16.5 7.29639V9.29639H17.6923C18.1909 9.29639 18.6169 9.47297 18.9703 9.82614C19.3234 10.1795 19.5 10.6055 19.5 11.1041V20.4886C19.5 20.9873 19.3234 21.4133 18.9703 21.7666C18.6169 22.1198 18.1909 22.2964 17.6923 22.2964H6.30775C5.80908 22.2964 5.38308 22.1198 5.02975 21.7666C4.67658 21.4133 4.5 20.9873 4.5 20.4886V11.1041C4.5 10.6055 4.67658 10.1795 5.02975 9.82614C5.38308 9.47297 5.80908 9.29639 6.30775 9.29639ZM6.30775 20.7964H17.6923C17.7821 20.7964 17.8558 20.7676 17.9135 20.7099C17.9712 20.6522 18 20.5785 18 20.4886V11.1041C18 11.0143 17.9712 10.9406 17.9135 10.8829C17.8558 10.8252 17.7821 10.7964 17.6923 10.7964H6.30775C6.21792 10.7964 6.14417 10.8252 6.0865 10.8829C6.02883 10.9406 6 11.0143 6 11.1041V20.4886C6 20.5785 6.02883 20.6522 6.0865 20.7099C6.14417 20.7676 6.21792 20.7964 6.30775 20.7964ZM12 17.5464C12.4858 17.5464 12.899 17.3762 13.2395 17.0359C13.5798 16.6954 13.75 16.2822 13.75 15.7964C13.75 15.3106 13.5798 14.8974 13.2395 14.5569C12.899 14.2166 12.4858 14.0464 12 14.0464C11.5142 14.0464 11.101 14.2166 10.7605 14.5569C10.4202 14.8974 10.25 15.3106 10.25 15.7964C10.25 16.2822 10.4202 16.6954 10.7605 17.0359C11.101 17.3762 11.5142 17.5464 12 17.5464Z" fill="#CACACA"/>
</svg>