<svg xmlns="http://www.w3.org/2000/svg" width="22" height="23" viewBox="0 0 22 23" fill="none">
  <path d="M2.33944 22.9097C1.6857 22.9097 1.13235 22.6832 0.679412 22.2303C0.226471 21.7773 0 21.224 0 20.5702V3.24911C0 2.59536 0.226471 2.04202 0.679412 1.58908C1.13235 1.13614 1.6857 0.909668 2.33944 0.909668H19.6606C20.3143 0.909668 20.8676 1.13614 21.3206 1.58908C21.7735 2.04202 22 2.59536 22 3.24911V20.5702C22 21.224 21.7735 21.7773 21.3206 22.2303C20.8676 22.6832 20.3143 22.9097 19.6606 22.9097H2.33944ZM2.33944 20.9685H19.6606C19.7602 20.9685 19.8514 20.927 19.9343 20.8439C20.0173 20.7611 20.0588 20.6699 20.0588 20.5702V3.24911C20.0588 3.14946 20.0173 3.05823 19.9343 2.9754C19.8514 2.89236 19.7602 2.85084 19.6606 2.85084H2.33944C2.23979 2.85084 2.14856 2.89236 2.06574 2.9754C1.9827 3.05823 1.94118 3.14946 1.94118 3.24911V20.5702C1.94118 20.6699 1.9827 20.7611 2.06574 20.8439C2.14856 20.927 2.23979 20.9685 2.33944 20.9685Z" fill="#7D7D7D"/>
</svg>