<svg xmlns="http://www.w3.org/2000/svg" width="39" height="38" viewBox="0 0 39 38" fill="none">
  <path d="M19.647 18.513C18.123 18.513 16.8185 17.9705 15.7334 16.8854C14.648 15.8 14.1053 14.4953 14.1053 12.9714C14.1053 11.4474 14.648 10.1429 15.7334 9.05775C16.8185 7.97238 18.123 7.42969 19.647 7.42969C21.1709 7.42969 22.4755 7.97238 23.5606 9.05775C24.646 10.1429 25.1886 11.4474 25.1886 12.9714C25.1886 14.4953 24.646 15.8 23.5606 16.8854C22.4755 17.9705 21.1709 18.513 19.647 18.513ZM7.77197 30.5709V27.0508C7.77197 26.2754 7.98256 25.5574 8.40372 24.8966C8.82489 24.2358 9.38776 23.7279 10.0923 23.3727C11.6572 22.6055 13.2359 22.0301 14.8285 21.6464C16.4211 21.2627 18.0272 21.0709 19.647 21.0709C21.2667 21.0709 22.8729 21.2627 24.4655 21.6464C26.058 22.0301 27.6367 22.6055 29.2016 23.3727C29.9062 23.7279 30.4691 24.2358 30.8902 24.8966C31.3114 25.5574 31.522 26.2754 31.522 27.0508V30.5709H7.77197ZM10.147 28.1959H29.147V27.0508C29.147 26.7301 29.0541 26.4333 28.8683 26.1601C28.6825 25.8873 28.4304 25.6645 28.1119 25.492C26.7476 24.8201 25.3566 24.3111 23.939 23.9648C22.5211 23.6189 21.0904 23.4459 19.647 23.4459C18.2035 23.4459 16.7728 23.6189 15.355 23.9648C13.9373 24.3111 12.5464 24.8201 11.1821 25.492C10.8636 25.6645 10.6114 25.8873 10.4256 26.1601C10.2399 26.4333 10.147 26.7301 10.147 27.0508V28.1959ZM19.647 16.138C20.5178 16.138 21.2633 15.828 21.8834 15.2078C22.5036 14.5877 22.8136 13.8422 22.8136 12.9714C22.8136 12.1005 22.5036 11.355 21.8834 10.7349C21.2633 10.1148 20.5178 9.80469 19.647 9.80469C18.7761 9.80469 18.0307 10.1148 17.4105 10.7349C16.7904 11.355 16.4803 12.1005 16.4803 12.9714C16.4803 13.8422 16.7904 14.5877 17.4105 15.2078C18.0307 15.828 18.7761 16.138 19.647 16.138Z" fill="white"/>
</svg>