<svg xmlns="http://www.w3.org/2000/svg" width="38" height="38" viewBox="0 0 38 38" fill="none">
  <path d="M18.9825 27.8905C19.4345 27.8905 19.8164 27.7345 20.128 27.4226C20.4397 27.1104 20.5955 26.7282 20.5955 26.2759C20.5955 25.8238 20.4394 25.442 20.1273 25.1303C19.8151 24.819 19.433 24.6633 18.9809 24.6633C18.5289 24.6633 18.147 24.8193 17.8354 25.1315C17.5237 25.4437 17.3679 25.8258 17.3679 26.2779C17.3679 26.7299 17.524 27.1117 17.8362 27.4234C18.1483 27.7348 18.5305 27.8905 18.9825 27.8905ZM17.8611 22.221H20.09C20.1104 21.4417 20.2245 20.8191 20.4324 20.353C20.6406 19.8873 21.1456 19.2698 21.9473 18.5005C22.6437 17.8041 23.177 17.161 23.5473 16.5712C23.9178 15.9817 24.103 15.2854 24.103 14.4824C24.103 13.1194 23.6134 12.0548 22.6341 11.2884C21.6545 10.5224 20.4959 10.1393 19.1583 10.1393C17.8367 10.1393 16.7431 10.492 15.8776 11.1974C15.0118 11.9028 14.3941 12.7335 14.0247 13.6896L16.0585 14.5054C16.2514 13.9797 16.5812 13.4676 17.0481 12.9692C17.5149 12.4709 18.2081 12.2218 19.1278 12.2218C20.0635 12.2218 20.7552 12.4781 21.2027 12.9905C21.6506 13.5033 21.8745 14.0671 21.8745 14.6819C21.8745 15.22 21.7211 15.7123 21.4145 16.1588C21.1081 16.6053 20.7174 17.0366 20.2424 17.4528C19.203 18.3906 18.5463 19.1387 18.2724 19.6971C17.9982 20.2553 17.8611 21.0965 17.8611 22.221ZM19.0027 34.0413C16.9222 34.0413 14.9666 33.6466 13.136 32.857C11.3054 32.0675 9.71314 30.9959 8.35913 29.6424C7.00511 28.289 5.93306 26.6973 5.14298 24.8675C4.35316 23.0377 3.95825 21.0827 3.95825 19.0024C3.95825 16.9219 4.35303 14.9664 5.14259 13.1358C5.93214 11.3052 7.00366 9.7129 8.35715 8.35888C9.71063 7.00487 11.3023 5.93282 13.1321 5.14274C14.9619 4.35292 16.9169 3.95801 18.9971 3.95801C21.0776 3.95801 23.0332 4.35278 24.8638 5.14234C26.6944 5.9319 28.2867 7.00342 29.6407 8.3569C30.9947 9.71039 32.0668 11.302 32.8569 13.1318C33.6467 14.9616 34.0416 16.9167 34.0416 18.9969C34.0416 21.0774 33.6468 23.033 32.8573 24.8636C32.0677 26.6941 30.9962 28.2865 29.6427 29.6405C28.2892 30.9945 26.6976 32.0665 24.8678 32.8566C23.0379 33.6464 21.0829 34.0413 19.0027 34.0413ZM18.9999 31.6663C22.536 31.6663 25.5312 30.4393 27.9853 27.9851C30.4395 25.5309 31.6666 22.5358 31.6666 18.9997C31.6666 15.4636 30.4395 12.4684 27.9853 10.0143C25.5312 7.56009 22.536 6.33301 18.9999 6.33301C15.4638 6.33301 12.4687 7.56009 10.0145 10.0143C7.56034 12.4684 6.33325 15.4636 6.33325 18.9997C6.33325 22.5358 7.56034 25.5309 10.0145 27.9851C12.4687 30.4393 15.4638 31.6663 18.9999 31.6663Z" fill="white"/>
</svg>