<svg xmlns="http://www.w3.org/2000/svg" width="18" height="18" viewBox="0 0 18 18" fill="none">
  <path d="M16.8967 18.0001L10.3208 11.4239C9.79729 11.8562 9.19526 12.1944 8.51472 12.4387C7.83417 12.683 7.13015 12.8052 6.40266 12.8052C4.61316 12.8052 3.09868 12.1856 1.85921 10.9465C0.619736 9.70739 0 8.19325 0 6.40411C0 4.61513 0.619561 3.10048 1.85868 1.86013C3.09781 0.619963 4.61194 -0.00012207 6.40109 -0.00012207C8.19006 -0.00012207 9.70472 0.619613 10.9451 1.85908C12.1852 3.09856 12.8053 4.61304 12.8053 6.40254C12.8053 7.15027 12.6798 7.86441 12.4289 8.54496C12.1778 9.22551 11.8429 9.81741 11.4241 10.3207L18 16.8966L16.8967 18.0001ZM6.40266 11.235C7.75171 11.235 8.89434 10.7668 9.83053 9.83041C10.7669 8.89422 11.2351 7.75159 11.2351 6.40254C11.2351 5.05348 10.7669 3.91085 9.83053 2.97466C8.89434 2.0383 7.75171 1.57011 6.40266 1.57011C5.0536 1.57011 3.91098 2.0383 2.97478 2.97466C2.03842 3.91085 1.57024 5.05348 1.57024 6.40254C1.57024 7.75159 2.03842 8.89422 2.97478 9.83041C3.91098 10.7668 5.0536 11.235 6.40266 11.235Z" fill="#5F6368"/>
</svg>