<svg xmlns="http://www.w3.org/2000/svg" width="23" height="22" viewBox="0 0 23 22" fill="none">
  <path d="M11.5003 15.3364C11.7101 15.3364 11.8859 15.2654 12.0279 15.1235C12.1698 14.9815 12.2408 14.8057 12.2408 14.5959C12.2408 14.3862 12.1698 14.2103 12.0279 14.0684C11.8859 13.9266 11.7101 13.8557 11.5003 13.8557C11.2906 13.8557 11.1147 13.9266 10.9728 14.0684C10.8309 14.2103 10.7599 14.3862 10.7599 14.5959C10.7599 14.8057 10.8309 14.9815 10.9728 15.1235C11.1147 15.2654 11.2906 15.3364 11.5003 15.3364ZM10.8128 11.9871H12.1878V6.48709H10.8128V11.9871ZM11.5019 19.7082C10.2974 19.7082 9.16527 19.4796 8.10545 19.0225C7.04563 18.5654 6.12377 17.945 5.33987 17.1614C4.55596 16.3778 3.9353 15.4564 3.47789 14.397C3.02062 13.3376 2.79199 12.2058 2.79199 11.0014C2.79199 9.79694 3.02055 8.66478 3.47766 7.60496C3.93477 6.54514 4.55512 5.62328 5.33872 4.83938C6.12232 4.05548 7.0438 3.43482 8.10316 2.9774C9.16252 2.52014 10.2944 2.2915 11.4987 2.2915C12.7032 2.2915 13.8354 2.52006 14.8952 2.97717C15.955 3.43428 16.8769 4.05464 17.6608 4.83823C18.4447 5.62183 19.0653 6.54331 19.5228 7.60267C19.98 8.66203 20.2087 9.79389 20.2087 10.9982C20.2087 12.2027 19.9801 13.3349 19.523 14.3947C19.0659 15.4545 18.4455 16.3764 17.6619 17.1603C16.8783 17.9442 15.9569 18.5649 14.8975 19.0223C13.8381 19.4795 12.7063 19.7082 11.5019 19.7082ZM11.5003 18.3332C13.5475 18.3332 15.2816 17.6228 16.7024 16.2019C18.1232 14.7811 18.8337 13.0471 18.8337 10.9998C18.8337 8.95261 18.1232 7.21859 16.7024 5.79775C15.2816 4.37692 13.5475 3.6665 11.5003 3.6665C9.4531 3.6665 7.71908 4.37692 6.29824 5.79775C4.87741 7.21859 4.16699 8.95261 4.16699 10.9998C4.16699 13.0471 4.87741 14.7811 6.29824 16.2019C7.71908 17.6228 9.4531 18.3332 11.5003 18.3332Z" fill="#7E7E7E"/>
</svg>