<svg width="107" height="26" viewBox="0 0 107 26" fill="none" xmlns="http://www.w3.org/2000/svg">
<path d="M17.212 17.814V18.854C17.212 19.6687 17.0387 20.4573 16.692 21.22C16.3453 21.9653 15.8253 22.6327 15.132 23.222C14.456 23.8113 13.598 24.2793 12.558 24.626C11.5353 24.99 10.348 25.172 8.996 25.172C7.76533 25.172 6.64733 24.9987 5.642 24.652C4.63667 24.3227 3.77 23.846 3.042 23.222C2.33133 22.6153 1.77667 21.8787 1.378 21.012C0.979333 20.128 0.78 19.1487 0.78 18.074V15.162C0.78 14.0873 0.979333 13.1167 1.378 12.25C1.77667 11.366 2.33133 10.6207 3.042 10.014C3.77 9.39 4.63667 8.91333 5.642 8.584C6.64733 8.23733 7.76533 8.064 8.996 8.064C10.296 8.064 11.4487 8.246 12.454 8.61C13.4767 8.95667 14.3347 9.42467 15.028 10.014C15.7387 10.6033 16.276 11.2793 16.64 12.042C17.0213 12.8047 17.212 13.5847 17.212 14.382V15.162H12.116V14.642C12.116 14.3127 12.038 14.0007 11.882 13.706C11.7433 13.394 11.5353 13.1167 11.258 12.874C10.998 12.6313 10.6773 12.4407 10.296 12.302C9.91467 12.146 9.48133 12.068 8.996 12.068C8.51067 12.068 8.07733 12.1547 7.696 12.328C7.31467 12.5013 6.98533 12.744 6.708 13.056C6.448 13.3507 6.24 13.706 6.084 14.122C5.94533 14.5207 5.876 14.954 5.876 15.422V17.814C5.876 18.282 5.94533 18.724 6.084 19.14C6.24 19.5387 6.448 19.894 6.708 20.206C6.98533 20.5007 7.31467 20.7347 7.696 20.908C8.07733 21.0813 8.51067 21.168 8.996 21.168C9.48133 21.168 9.91467 21.0987 10.296 20.96C10.6773 20.804 10.998 20.6047 11.258 20.362C11.5353 20.1193 11.7433 19.8507 11.882 19.556C12.038 19.244 12.116 18.9233 12.116 18.594V17.814H17.212ZM19.302 2.838H24.398V19.894C24.398 20.3447 24.5106 20.648 24.736 20.804C24.9613 20.9427 25.256 21.012 25.62 21.012H26.66V25.172H25.308C24.2506 25.172 23.3406 25.042 22.578 24.782C21.8326 24.522 21.2173 24.158 20.732 23.69C20.2466 23.222 19.8826 22.6587 19.64 22C19.4146 21.3413 19.302 20.6047 19.302 19.79V2.838ZM33.8362 25.172C32.9522 25.172 32.1202 25.068 31.3402 24.86C30.5602 24.652 29.8842 24.3487 29.3122 23.95C28.7402 23.5513 28.2808 23.0487 27.9342 22.442C27.6048 21.8527 27.4402 21.168 27.4402 20.388C27.4402 19.5733 27.5615 18.8367 27.8042 18.178C28.0642 17.5193 28.4715 16.9473 29.0262 16.462C29.5982 15.9593 30.3348 15.552 31.2362 15.24C32.1548 14.9107 33.2815 14.668 34.6162 14.512L38.5162 14.07V13.706C38.5162 13.0473 38.2562 12.588 37.7362 12.328C37.2162 12.0507 36.5228 11.912 35.6562 11.912C34.8242 11.912 34.1828 12.0593 33.7322 12.354C33.2815 12.6313 33.0562 12.9953 33.0562 13.446V13.706H27.9602V13.186C27.9602 12.4927 28.1422 11.8427 28.5062 11.236C28.8702 10.612 29.3815 10.0747 30.0402 9.624C30.7162 9.17333 31.5222 8.818 32.4582 8.558C33.4115 8.298 34.4775 8.168 35.6562 8.168C36.7828 8.168 37.8315 8.30667 38.8022 8.584C39.7728 8.86133 40.6135 9.24267 41.3242 9.728C42.0348 10.2133 42.5895 10.8027 42.9882 11.496C43.4042 12.172 43.6122 12.9087 43.6122 13.706V24.834H38.7762V23.898C38.2908 24.2447 37.5975 24.5393 36.6962 24.782C35.7948 25.042 34.8415 25.172 33.8362 25.172ZM35.3962 15.214C35.3615 15.8207 35.2055 16.4013 34.9282 16.956C34.6508 17.4933 34.2868 17.97 33.8362 18.386C33.4028 18.7847 32.9002 19.114 32.3282 19.374C31.7735 19.6167 31.1928 19.7467 30.5862 19.764C31.2102 19.7987 31.8082 19.946 32.3802 20.206C32.9695 20.466 33.4808 20.804 33.9142 21.22C34.3648 21.636 34.7202 22.1127 34.9802 22.65C35.2575 23.2047 35.3962 23.7767 35.3962 24.366C35.3962 23.7767 35.5262 23.2047 35.7862 22.65C36.0462 22.1127 36.3928 21.636 36.8262 21.22C37.2768 20.7867 37.7882 20.44 38.3602 20.18C38.9495 19.92 39.5562 19.7727 40.1802 19.738C39.5735 19.7207 38.9842 19.5907 38.4122 19.348C37.8575 19.088 37.3548 18.7587 36.9042 18.36C36.4708 17.944 36.1155 17.4673 35.8382 16.93C35.5608 16.3927 35.4135 15.8207 35.3962 15.214ZM52.8231 25.276C51.5577 25.224 50.4311 25.0333 49.4431 24.704C48.4724 24.3747 47.6577 23.9413 46.9991 23.404C46.3404 22.884 45.8551 22.2687 45.5431 21.558C45.2484 20.8473 45.1531 20.0847 45.2571 19.27H49.9371C49.8677 19.582 49.9197 19.8593 50.0931 20.102C50.2664 20.3447 50.5004 20.5613 50.7951 20.752C51.0897 20.9253 51.4277 21.064 51.8091 21.168C52.2077 21.2547 52.5891 21.3067 52.9531 21.324C53.8197 21.3587 54.4957 21.246 54.9811 20.986C55.4664 20.7087 55.7091 20.388 55.7091 20.024C55.7091 19.764 55.5531 19.5473 55.2411 19.374C54.9464 19.1833 54.5997 19.0187 54.2011 18.88L49.6251 17.372C48.4464 16.9733 47.5191 16.41 46.8431 15.682C46.1844 14.9367 45.8551 14.0353 45.8551 12.978C45.8551 12.1633 46.0457 11.4527 46.4271 10.846C46.8257 10.222 47.3544 9.71067 48.0131 9.312C48.6717 8.896 49.4344 8.584 50.3011 8.376C51.1851 8.168 52.1211 8.064 53.1091 8.064C54.0971 8.064 55.0244 8.20267 55.8911 8.48C56.7577 8.74 57.5031 9.104 58.1271 9.572C58.7511 10.0227 59.2191 10.56 59.5311 11.184C59.8431 11.808 59.9384 12.484 59.8171 13.212H55.3971C55.4144 12.952 55.3537 12.7353 55.2151 12.562C55.0937 12.3713 54.9204 12.224 54.6951 12.12C54.4697 11.9987 54.2097 11.912 53.9151 11.86C53.6377 11.808 53.3604 11.782 53.0831 11.782C52.4937 11.782 51.9911 11.86 51.5751 12.016C51.1591 12.172 50.9511 12.3713 50.9511 12.614C50.9511 12.8567 51.0551 13.056 51.2631 13.212C51.4711 13.368 51.8004 13.5413 52.2511 13.732L57.4251 15.578C57.9277 15.7687 58.3957 15.994 58.8291 16.254C59.2624 16.4967 59.6351 16.8 59.9471 17.164C60.2591 17.5107 60.4931 17.918 60.6491 18.386C60.8051 18.854 60.8657 19.3913 60.8311 19.998C60.7791 20.778 60.5451 21.4973 60.1291 22.156C59.7131 22.832 59.1497 23.404 58.4391 23.872C57.7457 24.3573 56.9224 24.7213 55.9691 24.964C55.0157 25.224 53.9671 25.328 52.8231 25.276ZM69.3016 25.276C68.0362 25.224 66.9096 25.0333 65.9216 24.704C64.9509 24.3747 64.1362 23.9413 63.4776 23.404C62.8189 22.884 62.3336 22.2687 62.0216 21.558C61.7269 20.8473 61.6316 20.0847 61.7356 19.27H66.4156C66.3462 19.582 66.3982 19.8593 66.5716 20.102C66.7449 20.3447 66.9789 20.5613 67.2736 20.752C67.5682 20.9253 67.9062 21.064 68.2876 21.168C68.6862 21.2547 69.0676 21.3067 69.4316 21.324C70.2982 21.3587 70.9742 21.246 71.4596 20.986C71.9449 20.7087 72.1876 20.388 72.1876 20.024C72.1876 19.764 72.0316 19.5473 71.7196 19.374C71.4249 19.1833 71.0782 19.0187 70.6796 18.88L66.1036 17.372C64.9249 16.9733 63.9976 16.41 63.3216 15.682C62.6629 14.9367 62.3336 14.0353 62.3336 12.978C62.3336 12.1633 62.5242 11.4527 62.9056 10.846C63.3042 10.222 63.8329 9.71067 64.4916 9.312C65.1502 8.896 65.9129 8.584 66.7796 8.376C67.6636 8.168 68.5996 8.064 69.5876 8.064C70.5756 8.064 71.5029 8.20267 72.3696 8.48C73.2362 8.74 73.9816 9.104 74.6056 9.572C75.2296 10.0227 75.6976 10.56 76.0096 11.184C76.3216 11.808 76.4169 12.484 76.2956 13.212H71.8756C71.8929 12.952 71.8322 12.7353 71.6936 12.562C71.5722 12.3713 71.3989 12.224 71.1736 12.12C70.9482 11.9987 70.6882 11.912 70.3936 11.86C70.1162 11.808 69.8389 11.782 69.5616 11.782C68.9722 11.782 68.4696 11.86 68.0536 12.016C67.6376 12.172 67.4296 12.3713 67.4296 12.614C67.4296 12.8567 67.5336 13.056 67.7416 13.212C67.9496 13.368 68.2789 13.5413 68.7296 13.732L73.9036 15.578C74.4062 15.7687 74.8742 15.994 75.3076 16.254C75.7409 16.4967 76.1136 16.8 76.4256 17.164C76.7376 17.5107 76.9716 17.918 77.1276 18.386C77.2836 18.854 77.3442 19.3913 77.3096 19.998C77.2576 20.778 77.0236 21.4973 76.6076 22.156C76.1916 22.832 75.6282 23.404 74.9176 23.872C74.2242 24.3573 73.4009 24.7213 72.4476 24.964C71.4942 25.224 70.4456 25.328 69.3016 25.276ZM88.5361 5.204H87.2621C86.6901 5.204 86.2221 5.37733 85.8581 5.724C85.5114 6.05333 85.3381 6.634 85.3381 7.466V8.324H88.6661V12.484H85.3381V24.834H80.2421V12.484H78.0061V8.324H80.2421V7.622C80.2421 6.738 80.3461 5.89733 80.5541 5.1C80.7794 4.30267 81.1348 3.60933 81.6201 3.02C82.1054 2.41333 82.7468 1.93667 83.5441 1.59C84.3414 1.226 85.3294 1.044 86.5081 1.044H88.5361V5.204ZM92.506 6.712C92.09 6.712 91.7086 6.64267 91.362 6.504C91.0153 6.348 90.7206 6.14 90.478 5.88C90.2353 5.62 90.0446 5.31667 89.906 4.97C89.7673 4.62333 89.698 4.25067 89.698 3.852C89.698 3.45333 89.7673 3.08067 89.906 2.734C90.0446 2.37 90.2353 2.058 90.478 1.798C90.7206 1.538 91.0153 1.33 91.362 1.174C91.7086 1.018 92.09 0.939998 92.506 0.939998C93.338 0.939998 94.014 1.226 94.534 1.798C95.054 2.35267 95.314 3.03733 95.314 3.852C95.314 4.25067 95.2446 4.62333 95.106 4.97C94.9673 5.31667 94.768 5.62 94.508 5.88C94.2653 6.14 93.9706 6.348 93.624 6.504C93.2946 6.64267 92.922 6.712 92.506 6.712ZM89.958 8.428H95.054V24.834H89.958V8.428ZM106.92 24.834H104.658C103.479 24.834 102.5 24.6433 101.72 24.262C100.94 23.898 100.324 23.3953 99.8735 22.754C99.4228 22.13 99.1022 21.402 98.9115 20.57C98.7382 19.7207 98.6515 18.828 98.6515 17.892V12.614H96.3635V8.454H98.6515V2.812H103.748V8.454H106.92V12.614H103.748V18.256C103.748 19.1053 103.921 19.7207 104.268 20.102C104.632 20.4833 105.126 20.674 105.75 20.674H106.92V24.834Z" fill="white"/>
</svg>
