<svg xmlns="http://www.w3.org/2000/svg" width="36" height="36" viewBox="0 0 36 36" fill="none">
  <path d="M17.9999 17.5486C16.5882 17.5486 15.3798 17.0461 14.3746 16.0409C13.3692 15.0355 12.8665 13.827 12.8665 12.4153C12.8665 11.0036 13.3692 9.79524 14.3746 8.79008C15.3798 7.78468 16.5882 7.28198 17.9999 7.28198C19.4115 7.28198 20.62 7.78468 21.6251 8.79008C22.6305 9.79524 23.1332 11.0036 23.1332 12.4153C23.1332 13.827 22.6305 15.0355 21.6251 16.0409C20.62 17.0461 19.4115 17.5486 17.9999 17.5486ZM6.99988 28.7181V25.4573C6.99988 24.7391 7.19494 24.074 7.58508 23.4619C7.97521 22.8498 8.49661 22.3792 9.14928 22.0502C10.5988 21.3396 12.0612 20.8066 13.5364 20.4512C15.0117 20.0958 16.4995 19.918 17.9999 19.918C19.5003 19.918 20.9881 20.0958 22.4633 20.4512C23.9385 20.8066 25.4009 21.3396 26.8505 22.0502C27.5031 22.3792 28.0245 22.8498 28.4147 23.4619C28.8048 24.074 28.9999 24.7391 28.9999 25.4573V28.7181H6.99988ZM9.19988 26.518H26.7999V25.4573C26.7999 25.1603 26.7138 24.8853 26.5417 24.6323C26.3697 24.3795 26.1361 24.1732 25.841 24.0133C24.5773 23.391 23.2888 22.9195 21.9756 22.5988C20.6622 22.2783 19.337 22.118 17.9999 22.118C16.6628 22.118 15.3375 22.2783 14.0241 22.5988C12.711 22.9195 11.4225 23.391 10.1587 24.0133C9.86367 24.1732 9.6301 24.3795 9.45801 24.6323C9.28592 24.8853 9.19988 25.1603 9.19988 25.4573V26.518ZM17.9999 15.3486C18.8065 15.3486 19.4971 15.0614 20.0715 14.487C20.646 13.9125 20.9332 13.222 20.9332 12.4153C20.9332 11.6086 20.646 10.9181 20.0715 10.3436C19.4971 9.7692 18.8065 9.48198 17.9999 9.48198C17.1932 9.48198 16.5027 9.7692 15.9282 10.3436C15.3538 10.9181 15.0665 11.6086 15.0665 12.4153C15.0665 13.222 15.3538 13.9125 15.9282 14.487C16.5027 15.0614 17.1932 15.3486 17.9999 15.3486Z" fill="#BEBEBE"/>
</svg>