<svg xmlns="http://www.w3.org/2000/svg" width="24" height="25" viewBox="0 0 24 25" fill="none">
  <path d="M10.6 16.467L17.323 9.74403L16.2693 8.69028L10.6 14.3595L7.75 11.5095L6.69625 12.5633L10.6 16.467ZM5.30775 21.1133C4.80258 21.1133 4.375 20.9383 4.025 20.5883C3.675 20.2383 3.5 19.8107 3.5 19.3055V5.92103C3.5 5.41586 3.675 4.98828 4.025 4.63828C4.375 4.28828 4.80258 4.11328 5.30775 4.11328H18.6923C19.1974 4.11328 19.625 4.28828 19.975 4.63828C20.325 4.98828 20.5 5.41586 20.5 5.92103V19.3055C20.5 19.8107 20.325 20.2383 19.975 20.5883C19.625 20.9383 19.1974 21.1133 18.6923 21.1133H5.30775ZM5.30775 19.6133H18.6923C18.7692 19.6133 18.8398 19.5812 18.9038 19.517C18.9679 19.453 19 19.3825 19 19.3055V5.92103C19 5.84403 18.9679 5.77353 18.9038 5.70953C18.8398 5.64536 18.7692 5.61328 18.6923 5.61328H5.30775C5.23075 5.61328 5.16025 5.64536 5.09625 5.70953C5.03208 5.77353 5 5.84403 5 5.92103V19.3055C5 19.3825 5.03208 19.453 5.09625 19.517C5.16025 19.5812 5.23075 19.6133 5.30775 19.6133Z" fill="#CACACA"/>
</svg>