<svg xmlns="http://www.w3.org/2000/svg" width="44" height="44" viewBox="0 0 44 44" fill="none">
  <path d="M20.1207 40.2416C17.7985 39.9972 15.6367 39.3479 13.6353 38.2937C11.6339 37.2395 9.8999 35.8951 8.43324 34.2604C6.96657 32.6257 5.8131 30.7541 4.97282 28.6458C4.13254 26.5375 3.7124 24.3069 3.7124 21.9541C3.7124 17.218 5.27837 13.1159 8.41032 9.64788C11.5423 6.17982 15.461 4.18607 20.1666 3.66663V7.33329C16.4693 7.85274 13.4138 9.4951 10.9999 12.2604C8.58601 15.0257 7.37907 18.2569 7.37907 21.9541C7.37907 25.6513 8.58601 28.8826 10.9999 31.6479C13.4138 34.4132 16.4541 36.0555 20.1207 36.575V40.2416ZM21.9541 31.1666L12.7416 21.9083L15.3541 19.2958L20.1207 24.0625V12.8333H23.7874V24.0625L28.5082 19.3416L31.1207 22L21.9541 31.1666ZM23.7874 40.2416V36.575C25.1013 36.3916 26.3617 36.0402 27.5687 35.5208C28.7756 35.0013 29.8985 34.3444 30.9374 33.55L33.5957 36.2083C32.1596 37.3388 30.6166 38.2479 28.9666 38.9354C27.3166 39.6229 25.5902 40.0583 23.7874 40.2416ZM31.0291 10.3583C29.9596 9.56385 28.8214 8.9069 27.6145 8.38746C26.4075 7.86801 25.1471 7.51663 23.8332 7.33329V3.66663C25.636 3.84996 27.3624 4.28538 29.0124 4.97288C30.6624 5.66038 32.1902 6.5694 33.5957 7.69996L31.0291 10.3583ZM36.1624 33.55L33.5957 30.9375C34.3902 29.8986 35.0318 28.7757 35.5207 27.5687C36.0096 26.3618 36.3457 25.1013 36.5291 23.7875H40.2874C40.043 25.5902 39.5846 27.3243 38.9124 28.9895C38.2402 30.6548 37.3235 32.175 36.1624 33.55ZM36.5291 20.1208C36.3457 18.8069 36.0096 17.5465 35.5207 16.3395C35.0318 15.1326 34.3902 14.0097 33.5957 12.9708L36.1624 10.3583C37.3235 11.7333 38.2555 13.2534 38.9582 14.9187C39.661 16.584 40.1041 18.318 40.2874 20.1208H36.5291Z" fill="white"/>
</svg>