<svg xmlns="http://www.w3.org/2000/svg" width="107" height="96" viewBox="0 0 107 96" fill="none">
  <path d="M0 6.39063C0 3.35306 2.46243 0.890625 5.5 0.890625H42.1605C43.8951 0.890625 45.5281 1.70895 46.5664 3.09852L57.6003 17.8654C58.6385 19.255 60.2715 20.0733 62.0062 20.0733H93.5C96.5376 20.0733 99 22.5358 99 25.5733V90.3906C99 93.4282 96.5376 95.8906 93.5 95.8906H5.5C2.46244 95.8906 0 93.4282 0 90.3906V6.39063Z" fill="#0056F6"/>
  <path d="M21 19.1185C21 14.5744 24.6837 10.8906 29.2278 10.8906H98.7722C103.316 10.8906 107 14.5744 107 19.1185V87.6628C107 92.2069 103.316 95.8906 98.7721 95.8906H21V19.1185Z" fill="#BDD4FF" fill-opacity="0.7"/>
</svg>