<svg xmlns="http://www.w3.org/2000/svg" width="20" height="21" viewBox="0 0 20 21" fill="none">
  <path d="M10.0004 16.5109C9.65662 16.5109 9.36238 16.3885 9.11766 16.1436C8.8728 15.8989 8.75037 15.6047 8.75037 15.2609C8.75037 14.9172 8.8728 14.6229 9.11766 14.378C9.36238 14.1333 9.65662 14.0109 10.0004 14.0109C10.3441 14.0109 10.6384 14.1333 10.8831 14.378C11.1279 14.6229 11.2504 14.9172 11.2504 15.2609C11.2504 15.6047 11.1279 15.8989 10.8831 16.1436C10.6384 16.3885 10.3441 16.5109 10.0004 16.5109ZM10.0004 11.7032C9.65662 11.7032 9.36238 11.5808 9.11766 11.3359C8.8728 11.0912 8.75037 10.797 8.75037 10.4532C8.75037 10.1095 8.8728 9.81523 9.11766 9.57051C9.36238 9.32565 9.65662 9.20322 10.0004 9.20322C10.3441 9.20322 10.6384 9.32565 10.8831 9.57051C11.1279 9.81523 11.2504 10.1095 11.2504 10.4532C11.2504 10.797 11.1279 11.0912 10.8831 11.3359C10.6384 11.5808 10.3441 11.7032 10.0004 11.7032ZM10.0004 6.89551C9.65662 6.89551 9.36238 6.77315 9.11766 6.52842C8.8728 6.28356 8.75037 5.98926 8.75037 5.64551C8.75037 5.30176 8.8728 5.00752 9.11766 4.7628C9.36238 4.51794 9.65662 4.39551 10.0004 4.39551C10.3441 4.39551 10.6384 4.51794 10.8831 4.7628C11.1279 5.00752 11.2504 5.30176 11.2504 5.64551C11.2504 5.98926 11.1279 6.28356 10.8831 6.52842C10.6384 6.77315 10.3441 6.89551 10.0004 6.89551Z" fill="#5F6368"/>
</svg>