<svg xmlns="http://www.w3.org/2000/svg" width="18" height="18" viewBox="0 0 18 18" fill="none">
  <path d="M14.6567 15.4323L9.9461 10.7215C9.5711 11.0311 9.13985 11.2735 8.65235 11.4485C8.16485 11.6235 7.66054 11.711 7.13942 11.711C5.85754 11.711 4.77267 11.2671 3.88479 10.3795C2.99692 9.4919 2.55298 8.40727 2.55298 7.12565C2.55298 5.84415 2.99679 4.75915 3.88442 3.87065C4.77204 2.98227 5.85667 2.53809 7.13829 2.53809C8.41979 2.53809 9.50479 2.98202 10.3933 3.8699C11.2817 4.75777 11.7259 5.84265 11.7259 7.12452C11.7259 7.66015 11.636 8.17171 11.4562 8.65921C11.2764 9.14671 11.0364 9.57071 10.7364 9.93121L15.447 14.6418L14.6567 15.4323ZM7.13942 10.5861C8.10579 10.5861 8.92429 10.2508 9.59492 9.58002C10.2657 8.9094 10.601 8.0909 10.601 7.12452C10.601 6.15815 10.2657 5.33965 9.59492 4.66902C8.92429 3.99827 8.10579 3.6629 7.13942 3.6629C6.17304 3.6629 5.35454 3.99827 4.68392 4.66902C4.01317 5.33965 3.67779 6.15815 3.67779 7.12452C3.67779 8.0909 4.01317 8.9094 4.68392 9.58002C5.35454 10.2508 6.17304 10.5861 7.13942 10.5861Z" fill="#CACACA"/>
</svg>