<svg xmlns="http://www.w3.org/2000/svg" width="24" height="25" viewBox="0 0 24 25" fill="none">
  <path d="M10.6 16.758L17.323 10.035L16.2693 8.9813L10.6 14.6505L7.75 11.8005L6.69625 12.8543L10.6 16.758ZM5.30775 21.4043C4.80258 21.4043 4.375 21.2293 4.025 20.8793C3.675 20.5293 3.5 20.1017 3.5 19.5965V6.21205C3.5 5.70688 3.675 5.2793 4.025 4.9293C4.375 4.5793 4.80258 4.4043 5.30775 4.4043H18.6923C19.1974 4.4043 19.625 4.5793 19.975 4.9293C20.325 5.2793 20.5 5.70688 20.5 6.21205V19.5965C20.5 20.1017 20.325 20.5293 19.975 20.8793C19.625 21.2293 19.1974 21.4043 18.6923 21.4043H5.30775ZM5.30775 19.9043H18.6923C18.7692 19.9043 18.8398 19.8722 18.9038 19.808C18.9679 19.744 19 19.6735 19 19.5965V6.21205C19 6.13505 18.9679 6.06455 18.9038 6.00055C18.8398 5.93638 18.7692 5.9043 18.6923 5.9043H5.30775C5.23075 5.9043 5.16025 5.93638 5.09625 6.00055C5.03208 6.06455 5 6.13505 5 6.21205V19.5965C5 19.6735 5.03208 19.744 5.09625 19.808C5.16025 19.8722 5.23075 19.9043 5.30775 19.9043Z" fill="#0056F6"/>
</svg>