<svg xmlns="http://www.w3.org/2000/svg" width="150" height="138" viewBox="0 0 150 138" fill="none">
  <rect x="20.4971" y="21.4009" width="117.391" height="90.3726" rx="4.37615" fill="#0056F6"/>
  <rect x="6.52148" y="32.584" width="118.323" height="76.3975" rx="2.78156" fill="#BDD4FF" fill-opacity="0.8"/>
  <rect x="35.4033" width="79.1925" height="100.621" rx="2.78156" fill="#5892FF" fill-opacity="0.8"/>
  <rect y="108.982" width="150" height="28.882" rx="5" fill="#D9D9D9"/>
  <path d="M20.4971 108.982H124.845L113.665 125.753H30.7455L20.4971 108.982Z" fill="#0056F6"/>
  <path d="M0 127.241H24.6894C25.9758 127.241 27.0186 128.284 27.0186 129.57C27.0186 130.857 25.9758 131.9 24.6894 131.9H0V127.241Z" fill="white"/>
  <path d="M131.366 119.694C131.366 118.408 132.409 117.365 133.695 117.365H150V122.024H133.695C132.409 122.024 131.366 120.981 131.366 119.694Z" fill="white"/>
  <rect x="46.584" y="10.248" width="57.7639" height="3.72671" rx="1.86335" fill="white"/>
  <rect x="46.584" y="25.1284" width="57.7639" height="3.72671" rx="1.86335" fill="white"/>
  <rect x="46.584" y="40.0376" width="57.7639" height="3.72671" rx="1.86335" fill="white"/>
  <rect x="46.584" y="54.9448" width="57.7639" height="3.72671" rx="1.86335" fill="white"/>
  <rect x="46.584" y="69.8477" width="57.7639" height="3.72671" rx="1.86335" fill="white"/>
  <rect x="68.0186" y="77.813" width="18.4211" height="52.1145" rx="2.24024" transform="rotate(-145.05 68.0186 77.813)" fill="#0056F6"/>
  <rect x="68.0186" y="77.813" width="18.4211" height="52.1145" rx="2.24024" transform="rotate(-145.05 68.0186 77.813)" fill="#0056F6"/>
  <path d="M94.0059 40.2764L78.9071 29.7235L82.293 24.879C83.7106 22.8508 86.5039 22.3557 88.5321 23.7733L96.2861 29.1927C98.3143 30.6102 98.8094 33.4036 97.3918 35.4318L94.0059 40.2764Z" fill="#00379E"/>
  <path d="M56.5504 82.0954C54.8275 82.9046 52.8761 81.5407 53.044 79.6447L53.9493 69.4221C54.1166 67.5324 56.2652 66.5308 57.8201 67.6175L66.2038 73.4771C67.7587 74.5638 67.5564 76.9257 65.8393 77.7322L56.5504 82.0954Z" fill="#BDD4FF" fill-opacity="0.7"/>
  <ellipse cx="59.253" cy="74.494" rx="1.1202" ry="1.21768" transform="rotate(-145.05 59.253 74.494)" fill="white"/>
  <path d="M54.6534 82.5964C54.3778 82.9908 53.8346 83.0871 53.4402 82.8114C53.0458 82.5358 52.9495 81.9926 53.2252 81.5982L58.3066 74.3277L59.7349 75.326L54.6534 82.5964Z" fill="white"/>
  <path d="M55.9004 85.6891C56.6098 92.0739 63.3726 95.5846 69.0474 94.9541C77.9101 93.9693 81.4643 82.894 71.7389 82.894C66.0166 82.894 69.4609 95.0058 74.0681 95.0058C77.2961 95.0058 85.9848 96.3277 87.5774 93.1425" stroke="white" stroke-width="1.75046" stroke-linecap="round"/>
</svg>