<svg xmlns="http://www.w3.org/2000/svg" width="64" height="68" viewBox="0 0 64 68" fill="none">
  <path d="M0 67.0169V59.5855C0 57.7219 0.548407 55.9783 1.64522 54.3548C2.7428 52.7319 4.21878 51.4718 6.07317 50.5742C10.3798 48.5316 14.6891 46.9994 19.001 45.9777C23.313 44.9568 27.628 44.4463 31.946 44.4463C36.2641 44.4463 40.5791 44.9568 44.891 45.9777C49.203 46.9994 53.5123 48.5316 57.8189 50.5742C59.6733 51.4718 61.1493 52.7319 62.2469 54.3548C63.3437 55.9783 63.8921 57.7219 63.8921 59.5855V67.0169H0ZM4.56372 62.5027H59.3284V59.5855C59.3284 58.5841 59.0021 57.6437 58.3494 56.7642C57.6976 55.8847 56.7951 55.141 55.642 54.5331C51.8861 52.7334 48.0134 51.3548 44.0239 50.397C40.0345 49.4393 36.0085 48.9604 31.946 48.9604C27.8836 48.9604 23.8576 49.4393 19.8682 50.397C15.8787 51.3548 12.006 52.7334 8.25006 54.5331C7.09696 55.141 6.19449 55.8847 5.54264 56.7642C4.89003 57.6437 4.56372 58.5841 4.56372 59.5855V62.5027Z" fill="#5F6368"/>
  <path d="M26.3889 26.3894C25.7407 26.3894 25.1929 26.1657 24.7453 25.7181C24.2977 25.2706 24.074 24.7227 24.074 24.0745C24.074 23.4263 24.2977 22.8785 24.7453 22.4309C25.1929 21.9834 25.7407 21.7596 26.3889 21.7596C27.0371 21.7596 27.585 21.9834 28.0325 22.4309C28.4801 22.8785 28.7038 23.4263 28.7038 24.0745C28.7038 24.7227 28.4801 25.2706 28.0325 25.7181C27.585 26.1657 27.0371 26.3894 26.3889 26.3894ZM37.5006 26.3894C36.8524 26.3894 36.3045 26.1657 35.857 25.7181C35.4094 25.2706 35.1856 24.7227 35.1856 24.0745C35.1856 23.4263 35.4094 22.8785 35.857 22.4309C36.3045 21.9834 36.8524 21.7596 37.5006 21.7596C38.1487 21.7596 38.6966 21.9834 39.1442 22.4309C39.5917 22.8785 39.8155 23.4263 39.8155 24.0745C39.8155 24.7227 39.5917 25.2706 39.1442 25.7181C38.6966 26.1657 38.1487 26.3894 37.5006 26.3894ZM31.9447 37.0381C36.0807 37.0381 39.584 35.6029 42.4545 32.7324C45.325 29.8618 46.7603 26.3586 46.7603 22.2226C46.7603 21.4818 46.714 20.7642 46.6214 20.0697C46.5288 19.3752 46.359 18.7039 46.1121 18.0557C45.4639 18.21 44.8157 18.3258 44.1676 18.4029C43.5194 18.4801 42.8403 18.5187 42.1304 18.5187C39.3216 18.5187 36.6672 17.9168 34.1671 16.713C31.6669 15.5093 29.5372 13.8271 27.7779 11.6665C26.7902 14.074 25.3781 16.1652 23.5415 17.9399C21.705 19.7147 19.5676 21.0497 17.1292 21.9448V22.2226C17.1292 26.3586 18.5644 29.8618 21.435 32.7324C24.3055 35.6029 27.8087 37.0381 31.9447 37.0381ZM31.9447 40.742C29.3829 40.742 26.9754 40.2559 24.7222 39.2836C22.469 38.3113 20.509 36.9918 18.8422 35.3251C17.1755 33.6583 15.856 31.6983 14.8837 29.4452C13.9114 27.192 13.4253 24.7844 13.4253 22.2226C13.4253 19.6607 13.9114 17.2532 14.8837 15C15.856 12.7468 17.1755 10.7868 18.8422 9.12006C20.509 7.45331 22.469 6.13381 24.7222 5.16154C26.9754 4.18927 29.3829 3.70312 31.9447 3.70312C34.5066 3.70312 36.9141 4.18927 39.1673 5.16154C41.4205 6.13381 43.3805 7.45331 45.0472 9.12006C46.714 10.7868 48.0335 12.7468 49.0058 15C49.978 17.2532 50.4642 19.6607 50.4642 22.2226C50.4642 24.7844 49.978 27.192 49.0058 29.4452C48.0335 31.6983 46.714 33.6583 45.0472 35.3251C43.3805 36.9918 41.4205 38.3113 39.1673 39.2836C36.9141 40.2559 34.5066 40.742 31.9447 40.742ZM29.4446 7.63852C30.741 9.79912 32.5003 11.5353 34.7227 12.8471C36.945 14.1589 39.4142 14.8148 42.1304 14.8148C42.5626 14.8148 42.9792 14.7916 43.3805 14.7453C43.7817 14.699 44.1984 14.645 44.6306 14.5833C43.3342 12.4227 41.5748 10.6865 39.3525 9.3747C37.1302 8.06291 34.6609 7.40702 31.9447 7.40702C31.5126 7.40702 31.0959 7.43017 30.6947 7.47646C30.2934 7.52276 29.8767 7.57679 29.4446 7.63852ZM17.9163 17.5464C19.4904 16.6513 20.8639 15.4938 22.0368 14.074C23.2097 12.6542 24.0894 11.0646 24.6759 9.30526C23.1017 10.2004 21.7282 11.3578 20.5553 12.7777C19.3824 14.1975 18.5027 15.7871 17.9163 17.5464Z" fill="#5F6368"/>
</svg>